HIERARCHY
ROOT Hips
{
	OFFSET 0.000000 0.000000 0.000000
	CHANNELS 6 Xposition Yposition Zposition Xrotation Yrotation Zrotation
	JOINT LeftUpLeg_virtual
	{
		OFFSET 0.000000 0.000000 0.000000
		CHANNELS 3 Xrotation Yrotation Zrotation
		JOINT LeftUpLeg
		{
			OFFSET 13.026900 -6.336304 -1.092800
			CHANNELS 3 Xrotation Yrotation Zrotation
			JOINT LeftLeg
			{
				OFFSET 0.524474 -46.096886 9.782700
				CHANNELS 3 Xrotation Yrotation Zrotation
				JOINT LeftFoot
				{
					OFFSET -0.524474 -53.427422 -12.948200
					CHANNELS 3 Xrotation Yrotation Zrotation
					JOINT LeftToeBase
					{
						OFFSET 0.192200 -14.009700 16.364100
						CHANNELS 3 Xrotation Yrotation Zrotation
						JOINT LeftToe_End
						{
							OFFSET -1.784700 -0.561700 9.474800
							CHANNELS 3 Xrotation Yrotation Zrotation
							End Site
							{
								OFFSET 0 0 0
							}
						}
					}
				}
			}
		}
	}
	JOINT RightUpLeg_virtual
	{
		OFFSET 0.000000 0.000000 0.000000
		CHANNELS 3 Xrotation Yrotation Zrotation
		JOINT RightUpLeg
		{
			OFFSET -12.883000 -6.336304 -1.092800
			CHANNELS 3 Xrotation Yrotation Zrotation
			JOINT RightLeg
			{
				OFFSET -0.524587 -46.096825 9.782800
				CHANNELS 3 Xrotation Yrotation Zrotation
				JOINT RightFoot
				{
					OFFSET 0.524587 -53.427383 -12.948300
					CHANNELS 3 Xrotation Yrotation Zrotation
					JOINT RightToeBase
					{
						OFFSET -0.192200 -14.009700 16.364100
						CHANNELS 3 Xrotation Yrotation Zrotation
						JOINT RightToe_End
						{
							OFFSET 1.784700 -0.561700 9.474800
							CHANNELS 3 Xrotation Yrotation Zrotation
							End Site
							{
								OFFSET 0 0 0
							}
						}
					}
				}
			}
		}
	}
	JOINT Spine_virtual
	{
		OFFSET 0.000000 0.000000 0.000000
		CHANNELS 3 Xrotation Yrotation Zrotation
		JOINT Spine
		{
			OFFSET 0.072000 7.257294 -0.789700
			CHANNELS 3 Xrotation Yrotation Zrotation
			JOINT Spine1
			{
				OFFSET 0.000000 12.508769 -0.658067
				CHANNELS 3 Xrotation Yrotation Zrotation
				JOINT Spine1_split
				{
					OFFSET 0.000000 12.508769 -0.658067
					CHANNELS 3 Xrotation Yrotation Zrotation
					JOINT Spine2
					{
						OFFSET 0.000000 12.508769 -0.658067
						CHANNELS 3 Xrotation Yrotation Zrotation
						JOINT Neck_virtual
						{
							OFFSET 0.000000 0.000000 0.000000
							CHANNELS 3 Xrotation Yrotation Zrotation
							JOINT Neck
							{
								OFFSET 0.000000 14.033295 7.520400
								CHANNELS 3 Xrotation Yrotation Zrotation
								JOINT Head
								{
									OFFSET 0.000000 8.198502 5.703100
									CHANNELS 3 Xrotation Yrotation Zrotation
									JOINT HeadTop_End
									{
										OFFSET 0.000000 17.760803 13.332701
										CHANNELS 3 Xrotation Yrotation Zrotation
										End Site
										{
											OFFSET 0 0 0
										}
									}
								}
							}
						}
						JOINT LeftShoulder_virtual
						{
							OFFSET 0.000000 0.000000 0.000000
							CHANNELS 3 Xrotation Yrotation Zrotation
							JOINT LeftShoulder
							{
								OFFSET 6.292450 5.785301 -0.669000
								CHANNELS 3 Xrotation Yrotation Zrotation
								JOINT LeftShoulder_split
								{
									OFFSET 6.292450 5.785301 -0.669000
									CHANNELS 3 Xrotation Yrotation Zrotation
									JOINT LeftArm
									{
										OFFSET 13.907140 -6.093903 1.965100
										CHANNELS 3 Xrotation Yrotation Zrotation
										JOINT LeftForeArm
										{
											OFFSET 34.140198 0.000000 0.000000
											CHANNELS 3 Xrotation Yrotation Zrotation
											JOINT LeftHand
											{
												OFFSET 40.960209 0.000000 0.000000
												CHANNELS 3 Xrotation Yrotation Zrotation
												End Site
												{
													OFFSET 0 0 0
												}
											}
										}
									}
								}
							}
						}
						JOINT RightShoulder_virtual
						{
							OFFSET 0.000000 0.000000 0.000000
							CHANNELS 3 Xrotation Yrotation Zrotation
							JOINT RightShoulder
							{
								OFFSET -6.292450 5.785301 -0.669000
								CHANNELS 3 Xrotation Yrotation Zrotation
								JOINT RightShoulder_split
								{
									OFFSET -6.292450 5.785301 -0.669000
									CHANNELS 3 Xrotation Yrotation Zrotation
									JOINT RightArm
									{
										OFFSET -13.907140 -6.093903 1.965100
										CHANNELS 3 Xrotation Yrotation Zrotation
										JOINT RightForeArm
										{
											OFFSET -34.140198 0.000000 0.000000
											CHANNELS 3 Xrotation Yrotation Zrotation
											JOINT RightHand
											{
												OFFSET -40.960209 0.000000 0.000000
												CHANNELS 3 Xrotation Yrotation Zrotation
												End Site
												{
													OFFSET 0 0 0
												}
											}
										}
									}
								}
							}
						}
					}
				}
			}
		}
	}
}
MOTION
Frames: 4
Frame Time: 0.03333333
-6.410191 89.947037 -144.752808 0.000000 0.000000 0.000000 164.556852 -70.339713 158.492054 -53.066175 -5.633534 32.188090 35.319178 -5.971594 0.648746 25.775401 4.788200 -10.063602 1.505951 1.611702 0.474126 0.000000 0.000000 0.000000 159.171234 -71.442570 153.601051 -46.456215 -1.569975 -23.481705 42.831379 -0.570276 0.499061 7.304775 0.418545 9.442354 -7.206777 -0.053854 0.998089 0.000000 0.000000 0.000000 163.344766 -73.424930 157.600550 5.676143 8.222559 -0.690117 -0.412087 12.497084 2.835307 0.107163 2.817213 1.139534 0.000000 0.000000 0.000000 9.262511 14.469397 0.367595 5.085162 9.456680 -5.803099 -8.773444 16.721169 7.518806 0.000000 0.000000 0.000000 6.501428 15.125148 0.357441 6.736329 10.326531 -11.621712 10.873266 0.553145 -1.132654 -52.676915 -34.440922 -47.208178 22.093063 -86.360461 18.203713 0.000000 0.000000 0.000000 7.373324 15.011608 1.512707 -13.440512 2.177402 -3.079367 10.967462 0.108387 -6.741269 -91.910775 38.211336 109.666378 -8.014301 40.326827 4.704967 0.000000 0.000000 0.000000 
-3.644707 90.270805 -150.883118 0.000000 0.000000 0.000000 163.114630 -72.010056 157.283916 -53.357772 -4.484048 30.999391 35.165649 -5.625399 1.086413 23.969541 4.282099 -11.245503 0.248455 1.444158 0.337293 0.000000 0.000000 0.000000 160.454749 -72.285442 155.300183 -46.406727 -4.652013 -19.249865 48.032042 -3.072718 1.374952 4.230867 -2.249459 7.750041 -7.939038 0.112509 0.822822 0.000000 0.000000 0.000000 164.630631 -72.667277 158.817895 6.282147 7.736694 -0.724483 -0.607817 11.685554 3.084477 0.173988 2.735453 1.033570 0.000000 0.000000 0.000000 9.366171 13.808885 0.498555 4.360841 10.178269 -6.733108 -10.206970 17.415833 8.122606 0.000000 0.000000 0.000000 6.591946 14.318781 0.617998 6.268436 9.893217 -11.216745 11.775139 3.460336 -1.778106 -52.784819 -34.712299 -47.824356 27.154585 -87.023290 23.009224 0.000000 0.000000 0.000000 7.375559 14.208314 1.678450 -13.388790 1.306166 -3.572915 11.222394 -0.245827 -7.820906 -92.345059 39.476291 110.149682 -7.794793 39.901873 4.521829 0.000000 0.000000 0.000000 
-1.535415 90.309593 -154.746155 0.000000 0.000000 0.000000 161.137550 -74.070772 155.365125 -55.219190 -3.912531 29.588359 37.738503 -5.293376 1.331986 21.248010 3.893869 -11.759017 -1.585544 1.340648 0.013029 0.000000 0.000000 0.000000 161.631687 -72.962471 156.670155 -45.503926 -6.715740 -15.962323 51.095221 -4.565837 1.607850 0.926165 -4.189411 7.065637 -8.372680 0.336198 0.677514 0.000000 0.000000 0.000000 165.033585 -72.100679 159.213048 6.640598 7.660738 -0.587583 -0.814740 11.091378 3.234729 0.090247 2.383999 1.013483 0.000000 0.000000 0.000000 9.596616 13.339540 0.517533 3.640405 10.577786 -7.678793 -11.269947 17.977114 8.220490 0.000000 0.000000 0.000000 6.698932 13.727774 0.735818 5.829581 9.699109 -11.039152 12.349138 5.933512 -1.772928 -53.269690 -34.892957 -48.552816 24.839047 -87.035680 20.418656 0.000000 0.000000 0.000000 7.453611 13.612558 1.723156 -13.347207 0.687245 -3.988063 10.996315 -0.948401 -8.387109 -92.794397 41.018482 110.567840 -7.427295 39.756564 4.247575 0.000000 0.000000 0.000000 
-0.529987 90.240799 -156.741104 0.000000 0.000000 0.000000 158.502995 -75.998190 152.718945 -57.696384 -3.232933 28.876800 41.106619 -4.886290 1.128096 18.993831 3.946963 -11.446917 -2.065372 1.373908 -0.633797 0.000000 0.000000 0.000000 161.786390 -73.523462 156.781228 -44.411598 -7.655516 -14.210362 51.391282 -4.846835 1.235279 -1.893597 -5.135500 7.035148 -7.656203 0.546605 0.747333 0.000000 0.000000 0.000000 164.799487 -71.965387 159.095815 6.830235 7.875826 -0.487108 -0.949520 10.700269 3.249572 -0.083878 1.799332 0.937489 0.000000 0.000000 0.000000 9.772906 13.053503 0.459710 2.883264 10.698171 -8.395350 -11.672974 18.358355 7.957510 0.000000 0.000000 0.000000 6.804505 13.331811 0.712592 5.440275 9.879847 -10.811476 12.229458 7.826012 -1.302013 -53.937154 -34.839449 -49.318566 17.498806 -86.325818 12.815095 0.000000 0.000000 0.000000 7.551683 13.214763 1.658552 -13.313202 0.197678 -4.259364 10.508157 -1.408427 -8.863906 -93.474957 42.683478 111.140681 -6.921234 39.356452 3.917624 0.000000 0.000000 0.000000 
